<svg width="450" height="348" viewBox="0 0 450 348" fill="none" xmlns="http://www.w3.org/2000/svg">
<g clip-path="url(#clip0_123_177)">
<path d="M442.371 301.378C440.48 286.169 431.055 271.185 416.55 266.236C422.271 281.889 422.269 299.062 416.547 314.714C414.318 320.743 411.212 327.216 413.308 333.292C414.612 337.073 417.803 339.965 421.37 341.774C424.937 343.582 428.896 344.444 432.805 345.289L433.574 345.925C439.78 331.913 444.263 316.586 442.371 301.378Z" fill="#F0F0F0"/>
<path d="M416.407 266.523C424.853 275.987 430.103 287.872 431.41 300.49C431.74 303.201 431.64 305.947 431.115 308.627C430.518 311.222 429.238 313.609 427.407 315.541C425.736 317.377 423.814 319.062 422.619 321.272C422.023 322.412 421.676 323.666 421.599 324.95C421.522 326.234 421.718 327.52 422.173 328.723C423.228 331.751 425.309 334.219 427.427 336.561C429.779 339.162 432.264 341.827 433.264 345.275C433.385 345.693 434.026 345.48 433.905 345.063C432.166 339.064 426.342 335.656 423.564 330.252C422.268 327.731 421.724 324.804 422.939 322.142C424.002 319.815 425.982 318.076 427.69 316.232C429.504 314.373 430.835 312.098 431.567 309.606C432.227 306.962 432.433 304.224 432.175 301.51C431.69 295.391 430.247 289.387 427.898 283.716C425.253 277.23 421.517 271.243 416.854 266.017C416.565 265.693 416.12 266.202 416.407 266.523H416.407Z" fill="white"/>
<path d="M431.228 296.402C433.316 295.895 435.155 294.663 436.417 292.926C437.68 291.188 438.284 289.058 438.121 286.917C438.086 286.484 437.412 286.517 437.446 286.95C437.601 288.944 437.039 290.928 435.86 292.544C434.681 294.159 432.963 295.3 431.017 295.761C430.594 295.861 430.808 296.502 431.228 296.402Z" fill="white"/>
<path d="M428.377 314.722C424.607 312.471 421.824 308.882 420.583 304.671C420.461 304.253 419.819 304.466 419.942 304.882C421.242 309.263 424.145 312.992 428.073 315.325C428.448 315.548 428.749 314.943 428.377 314.722Z" fill="white"/>
<path d="M424.626 277.87C423.859 278.234 423.014 278.402 422.166 278.359C421.319 278.316 420.495 278.063 419.769 277.623C419.397 277.396 419.096 278.001 419.465 278.226C420.269 278.709 421.18 278.987 422.116 279.037C423.053 279.086 423.987 278.906 424.838 278.511C424.921 278.48 424.99 278.419 425.03 278.34C425.07 278.261 425.078 278.169 425.053 278.084C425.024 278 424.964 277.929 424.884 277.889C424.804 277.849 424.711 277.842 424.626 277.87Z" fill="white"/>
<path d="M372.34 293.399C372.568 293.548 372.796 293.696 373.024 293.85C376.079 295.858 378.965 298.112 381.655 300.588C381.866 300.776 382.077 300.97 382.282 301.164C388.698 307.198 393.938 314.371 397.736 322.319C399.244 325.483 400.51 328.757 401.521 332.113C402.918 336.747 404.064 341.884 406.829 345.675C407.113 346.073 407.421 346.454 407.752 346.815H432.738C432.795 346.786 432.852 346.763 432.909 346.735L433.907 346.78C433.867 346.604 433.822 346.421 433.781 346.245C433.759 346.142 433.73 346.039 433.707 345.937C433.69 345.868 433.673 345.8 433.662 345.737C433.656 345.714 433.65 345.692 433.645 345.675C433.633 345.612 433.616 345.555 433.605 345.498C433.354 344.477 433.095 343.457 432.829 342.437C432.829 342.431 432.829 342.431 432.824 342.425C430.777 334.655 428.064 326.988 424.273 319.976C424.159 319.765 424.045 319.548 423.919 319.337C422.193 316.186 420.212 313.182 417.996 310.353C416.778 308.808 415.482 307.326 414.114 305.912C410.572 302.266 406.478 299.2 401.983 296.826C393.022 292.094 382.647 290.281 373.069 293.171C372.824 293.246 372.585 293.32 372.34 293.399Z" fill="#F0F0F0"/>
<path d="M372.396 293.717C384.838 296.188 396.185 302.516 404.826 311.804C406.721 313.77 408.295 316.023 409.489 318.479C410.575 320.91 410.99 323.587 410.692 326.232C410.463 328.704 409.943 331.206 410.319 333.69C410.53 334.959 411.007 336.169 411.719 337.241C412.431 338.312 413.361 339.221 414.449 339.908C417.114 341.69 420.261 342.408 423.363 343.003C426.807 343.663 430.395 344.295 433.269 346.446C433.618 346.707 434.002 346.151 433.654 345.891C428.653 342.148 421.951 342.934 416.48 340.291C413.928 339.058 411.731 337.049 411.099 334.192C410.546 331.694 411.08 329.113 411.333 326.612C411.662 324.036 411.356 321.419 410.44 318.988C409.375 316.479 407.89 314.169 406.05 312.158C401.98 307.564 397.213 303.639 391.923 300.526C385.905 296.939 379.319 294.408 372.448 293.043C372.023 292.959 371.974 293.633 372.396 293.717H372.396Z" fill="white"/>
<path d="M402.22 308.65C403.581 306.988 404.308 304.897 404.27 302.75C404.232 300.602 403.431 298.538 402.012 296.926C401.724 296.601 401.205 297.034 401.494 297.359C402.818 298.858 403.563 300.781 403.594 302.781C403.626 304.78 402.941 306.726 401.664 308.265C401.387 308.6 401.944 308.982 402.22 308.65Z" fill="white"/>
<path d="M410.973 324.994C406.608 325.466 402.225 324.276 398.699 321.66C398.349 321.401 397.965 321.957 398.314 322.216C401.989 324.931 406.552 326.16 411.094 325.658C411.526 325.61 411.403 324.946 410.973 324.994Z" fill="white"/>
<path d="M385.79 297.827C385.397 298.58 384.824 299.223 384.121 299.699C383.418 300.175 382.608 300.469 381.764 300.555C381.33 300.597 381.454 301.262 381.884 301.219C382.817 301.12 383.711 300.795 384.489 300.27C385.266 299.746 385.904 299.039 386.345 298.212C386.394 298.137 386.412 298.047 386.396 297.96C386.38 297.873 386.331 297.795 386.26 297.742C386.186 297.691 386.096 297.672 386.008 297.688C385.92 297.704 385.842 297.754 385.79 297.827Z" fill="white"/>
<path d="M250.09 18.585C249.488 19.3362 249.058 20.2104 248.83 21.1459C248.602 22.0814 248.582 23.0555 248.771 23.9996C248.96 24.9437 249.354 25.8348 249.925 26.6102C250.496 27.3856 251.23 28.0264 252.075 28.4874L248.224 51.5742L259.341 46.6404L261.294 25.4732C261.974 24.0018 262.091 22.3319 261.623 20.7799C261.154 19.228 260.133 17.9018 258.752 17.0527C257.371 16.2037 255.726 15.8907 254.13 16.1731C252.533 16.4555 251.096 17.3137 250.09 18.585Z" fill="#9E616A"/>
<path d="M350.104 337.983L341.014 337.982L336.69 302.92L350.106 302.92L350.104 337.983Z" fill="#9E616A"/>
<path d="M352.423 346.794L323.112 346.793V346.422C323.112 343.397 324.314 340.495 326.454 338.356C328.593 336.216 331.495 335.014 334.52 335.014H334.521L352.423 335.015L352.423 346.794Z" fill="#2F2E41"/>
<path d="M289.107 337.983L280.017 337.982L275.693 302.92L289.109 302.92L289.107 337.983Z" fill="#9E616A"/>
<path d="M291.426 346.794L262.115 346.793V346.422C262.115 343.397 263.317 340.495 265.456 338.356C267.596 336.216 270.498 335.014 273.523 335.014H273.524L291.426 335.015L291.426 346.794Z" fill="#2F2E41"/>
<path d="M285.318 174.37L281.92 178.838C281.92 178.838 281.613 180.925 276.459 197.927L273.632 325.722H290.734L313.594 223.472L337.319 327.774L352.144 328.648L351.447 210.098C351.447 210.098 353.319 185.709 346.682 181.179C340.045 176.65 285.318 174.37 285.318 174.37Z" fill="#2F2E41"/>
<path d="M308.253 66.979C318.164 66.979 326.199 58.9443 326.199 49.0331C326.199 39.1218 318.164 31.0871 308.253 31.0871C298.342 31.0871 290.307 39.1218 290.307 49.0331C290.307 58.9443 298.342 66.979 308.253 66.979Z" fill="#9E616A"/>
<path d="M326.307 51.8427L326.011 51.2501C325.552 50.3334 321.758 42.7133 321.281 40.7539L316.506 41.3157L304.069 41.3176L305.797 38.7256L301.229 39.3215C299.559 39.5245 297.962 40.1263 296.573 41.0763C295.721 41.6423 295.001 42.3848 294.461 43.2535C292.83 46.0482 290.336 50.6193 290.311 50.6652L290.073 51.1025L288.001 47.6173C287.974 47.482 285.406 34.089 293.999 29.5469C294.443 28.6467 298.219 21.566 307.145 22.0439C308.127 20.9254 309.509 20.2383 310.993 20.1313C313.031 20.025 315.147 21.0958 317.272 23.3274C320.095 26.2913 323.961 30.3502 326.299 34.857L326.944 35.7773C327.861 37.0943 328.315 38.678 328.235 40.2804C328.731 42.838 328.555 45.4806 327.723 47.9493L326.307 51.8427Z" fill="#2F2E41"/>
<path d="M321.927 70.3558L331.857 75.8443L351.363 81.3061L345.541 132.353L346.6 182.636C346.6 182.636 313.582 205.255 281.92 178.838V115.547L283.793 81.3061C283.793 81.3061 291.37 79.1537 295.185 82.8666L302.42 73.4679L321.927 70.3558Z" fill="#E4E4E4"/>
<path d="M288.169 86.0093L283.793 81.3063L259.683 78.5751L261.945 41.5441L248.8 32.1666L239.143 84.2991L283.755 115.547L288.169 86.0093Z" fill="#E4E4E4"/>
<path d="M337.042 199.252C336.862 198.306 336.892 197.332 337.129 196.399C337.367 195.466 337.806 194.596 338.415 193.851C339.025 193.106 339.791 192.503 340.659 192.086C341.527 191.669 342.475 191.447 343.438 191.436L350.861 169.239L358.367 178.809L350.168 198.421C350.079 200.04 349.399 201.569 348.257 202.721C347.116 203.872 345.592 204.564 343.974 204.666C342.356 204.769 340.757 204.274 339.479 203.276C338.202 202.278 337.334 200.846 337.042 199.252Z" fill="#9E616A"/>
<path d="M344.035 87.1495L351.363 81.3061C351.363 81.3061 358.857 85.4393 361.137 92.8501C363.417 100.261 367.408 142.446 367.408 142.446L356.576 196.602L344.464 188.202L350.306 145.296L340.045 113.943L344.035 87.1495Z" fill="#E4E4E4"/>
<path d="M252.166 0H67.3491V44.9111H252.166V0Z" fill="#E6E6E6"/>
<path d="M72.1985 40.0617H247.317V4.84941H72.1985V40.0617Z" fill="white"/>
<path d="M105.553 35.8705C112.962 35.8705 118.968 29.8645 118.968 22.4556C118.968 15.0467 112.962 9.04056 105.553 9.04056C98.1438 9.04056 92.1377 15.0467 92.1377 22.4556C92.1377 29.8645 98.1438 35.8705 105.553 35.8705Z" fill="#E5A823"/>
<path d="M227.377 17.2062H137.632V20.1225H227.377V17.2062Z" fill="#E5A823"/>
<path d="M227.377 24.7886H137.632V27.7049H227.377V24.7886Z" fill="#E5A823"/>
<path d="M0 68.2607L156.377 79.6671V120.726L0 117.822V68.2607Z" fill="#E6E6E6"/>
<path d="M4.92603 112.591L152.963 116.212V83.871L4.92603 73.9425V112.591Z" fill="white"/>
<path d="M37.4172 80.5568C39.1263 80.6671 40.7907 81.149 42.2943 81.9689C43.8024 82.7933 45.1403 83.8966 46.2368 85.2201C47.3763 86.5893 48.2688 88.1464 48.8745 89.8216C49.5135 91.5842 49.8395 93.4449 49.838 95.3197C49.8447 97.1661 49.5183 98.9986 48.8745 100.729C48.2773 102.336 47.3825 103.816 46.2368 105.092C45.1367 106.318 43.7942 107.302 42.2943 107.982C40.7629 108.67 39.0951 109 37.4172 108.948C35.7 108.894 34.0159 108.461 32.4851 107.681C30.9344 106.888 29.5525 105.801 28.4159 104.482C27.2234 103.102 26.2871 101.521 25.6515 99.8119C24.9769 98.0069 24.6322 96.0954 24.6337 94.1684C24.6262 92.2702 24.9713 90.387 25.6515 88.6148C26.279 86.9781 27.218 85.4787 28.4166 84.1996C29.5581 82.9807 30.945 82.0176 32.4858 81.3735C34.0457 80.7284 35.7326 80.449 37.4172 80.5568Z" fill="#E6E6E6"/>
<path d="M66.5425 90.716L138.592 94.4708V97.1997L66.5425 93.6991V90.716Z" fill="#E6E6E6"/>
<path d="M66.5425 98.4729L138.592 101.566V104.295L66.5425 101.456V98.4729Z" fill="#E6E6E6"/>
<path d="M0 151.669L156.377 148.766V189.824L0 201.231V151.669Z" fill="#E6E6E6"/>
<path d="M4.92603 195.548L152.963 185.62V153.282L4.92603 156.903V195.548Z" fill="white"/>
<path d="M24.6444 174.668C24.7204 172.743 25.1421 170.847 25.8895 169.071C26.5914 167.397 27.5892 165.863 28.835 164.543C30.0207 163.282 31.4424 162.266 33.0195 161.553C34.5792 160.851 36.2756 160.504 37.9858 160.538C39.6642 160.572 41.3128 160.988 42.8073 161.752C44.2768 162.511 45.5748 163.563 46.621 164.843C47.7121 166.177 48.545 167.702 49.077 169.341C49.6499 171.103 49.9026 172.953 49.8233 174.803C49.7514 176.676 49.3525 178.522 48.6446 180.258C47.975 181.903 47.0219 183.418 45.8285 184.734C44.6824 186.003 43.303 187.04 41.7654 187.789C40.2299 188.534 38.5491 188.932 36.8426 188.954C35.1528 188.974 33.4808 188.607 31.9548 187.881C30.4425 187.155 29.0994 186.12 28.0123 184.843C26.8691 183.501 25.9939 181.952 25.4343 180.28C24.8283 178.474 24.5605 176.572 24.6444 174.668Z" fill="#E6E6E6"/>
<path d="M66.5425 168.035L138.592 165.197V167.925L66.5425 171.018V168.035Z" fill="#E6E6E6"/>
<path d="M66.5425 175.792L138.592 172.292V175.021L66.5425 178.775V175.792Z" fill="#E6E6E6"/>
<path d="M449.43 347.385H232.235C232.083 347.385 231.938 347.325 231.832 347.218C231.725 347.111 231.665 346.966 231.665 346.815C231.665 346.663 231.725 346.518 231.832 346.412C231.938 346.305 232.083 346.245 232.235 346.245H449.43C449.581 346.245 449.726 346.305 449.833 346.412C449.94 346.518 450 346.663 450 346.815C450 346.966 449.94 347.111 449.833 347.218C449.726 347.325 449.581 347.385 449.43 347.385Z" fill="#CACACA"/>
</g>
<defs>
<clipPath id="clip0_123_177">
<rect width="450" height="347.385" fill="white"/>
</clipPath>
</defs>
</svg>
